<svg width="75" height="34" viewBox="0 0 75 34" fill="none" xmlns="http://www.w3.org/2000/svg">
<path d="M63.2253 0.46521H9.47803C5.22082 0.46521 1.73227 4.14192 1.73227 8.62875V24.9558C1.73227 29.4426 5.22082 33.1194 9.47803 33.1194H63.1958C67.453 33.1194 70.9415 29.4426 70.9415 24.9558V8.62875C70.9711 4.14192 67.4826 0.46521 63.2253 0.46521Z" fill="white"/>
<path d="M9.47756 27.6981C8.05849 27.6981 6.87593 26.4829 6.87593 24.9562V8.6291C6.87593 7.13349 8.02893 5.88715 9.47756 5.88715H18.672V27.667H9.47756V27.6981Z" fill="url(#paint0_linear)"/>
<path d="M30.4393 5.91803H18.6729V27.6978H30.4393V5.91803Z" fill="url(#paint1_linear)"/>
<path d="M42.2346 5.91803H30.4681V27.6978H42.2346V5.91803Z" fill="url(#paint2_linear)"/>
<path d="M54.0013 5.91803H42.2348V27.6978H54.0013V5.91803Z" fill="url(#paint3_linear)"/>
<path d="M63.2245 27.6978H54.0301V5.91803H63.2245C64.6435 5.91803 65.8261 7.13321 65.8261 8.65998V24.9871C65.7965 26.4827 64.6435 27.6978 63.2245 27.6978Z" fill="url(#paint4_linear)"/>
<path d="M74.2231 20.2509C74.2231 20.9987 73.6318 21.6218 72.9223 21.6218H70.232C69.5224 21.6218 68.9312 20.9987 68.9312 20.2509V12.9286C68.9312 12.1808 69.5224 11.5576 70.232 11.5576H72.9223C73.6318 11.5576 74.2231 12.1808 74.2231 12.9286V20.2509Z" fill="white"/>
<path d="M4.03801 22.9931C4.03801 23.741 3.44673 24.3641 2.7372 24.3641H1.34769C0.638154 24.3641 0.046875 23.741 0.046875 22.9931V10.2181C0.046875 9.47034 0.638154 8.84717 1.34769 8.84717H2.7372C3.44673 8.84717 4.03801 9.47034 4.03801 10.2181V22.9931Z" fill="white"/>
<defs>
<linearGradient id="paint0_linear" x1="12.794" y1="27.7083" x2="12.794" y2="5.91765" gradientUnits="userSpaceOnUse">
<stop stop-color="#FC3F66"/>
<stop offset="0.1721" stop-color="#FD5160"/>
<stop offset="0.3941" stop-color="#FD615C"/>
<stop offset="0.6477" stop-color="#FE6A59"/>
<stop offset="1" stop-color="#FE6D58"/>
</linearGradient>
<linearGradient id="paint1_linear" x1="24.5744" y1="27.708" x2="24.5744" y2="5.91738" gradientUnits="userSpaceOnUse">
<stop stop-color="#6E3CF6"/>
<stop offset="0.00517076" stop-color="#703CF5"/>
<stop offset="0.1335" stop-color="#9247E1"/>
<stop offset="0.2686" stop-color="#AF50D1"/>
<stop offset="0.4136" stop-color="#C556C4"/>
<stop offset="0.5712" stop-color="#D55BBB"/>
<stop offset="0.7507" stop-color="#DE5EB6"/>
<stop offset="1" stop-color="#E15FB4"/>
</linearGradient>
<linearGradient id="paint2_linear" x1="36.3533" y1="27.708" x2="36.3533" y2="5.91738" gradientUnits="userSpaceOnUse">
<stop stop-color="#4A3BF6"/>
<stop offset="1" stop-color="#458EFA"/>
</linearGradient>
<linearGradient id="paint3_linear" x1="48.1331" y1="27.708" x2="48.1331" y2="5.91738" gradientUnits="userSpaceOnUse">
<stop stop-color="#2C63FA"/>
<stop offset="0.1249" stop-color="#2884FB"/>
<stop offset="0.2613" stop-color="#24A1FD"/>
<stop offset="0.4077" stop-color="#21B7FE"/>
<stop offset="0.5669" stop-color="#1FC7FE"/>
<stop offset="0.7482" stop-color="#1DD0FF"/>
<stop offset="1" stop-color="#1DD3FF"/>
</linearGradient>
<linearGradient id="paint4_linear" x1="59.912" y1="27.708" x2="59.912" y2="5.91738" gradientUnits="userSpaceOnUse">
<stop stop-color="#00ACFA"/>
<stop offset="0.0200129" stop-color="#00B0FA"/>
<stop offset="0.1729" stop-color="#00CDFC"/>
<stop offset="0.3368" stop-color="#00E3FD"/>
<stop offset="0.5151" stop-color="#00F3FE"/>
<stop offset="0.7181" stop-color="#00FCFF"/>
<stop offset="1" stop-color="#00FFFF"/>
</linearGradient>
</defs>
</svg>
