<svg width="29" height="28" viewBox="0 0 29 28" fill="none" xmlns="http://www.w3.org/2000/svg">
    <circle cx="14.2939" cy="13.9874" r="12.8581" fill="#FFA800" stroke="white" stroke-width="1.71616"/>
    <path d="M20.5337 11.8042C20.7504 11.8042 20.9689 11.7213 21.135 11.5544C21.4676 11.2224 21.4676 10.6832 21.1347 10.3513C20.0851 9.3018 18.3784 9.3018 17.3287 10.3513C16.9958 10.6832 16.9958 11.2225 17.3286 11.5545C17.6605 11.8872 18.1997 11.8872 18.5316 11.5545C18.9173 11.1688 19.5458 11.1687 19.9316 11.5543C20.0978 11.7214 20.3163 11.8042 20.5337 11.8042Z" fill="white" stroke="white" stroke-width="0.399757"/>
    <path d="M6.49389 16.7736L6.49389 16.7736L6.49366 16.7738C6.16171 17.1057 6.16171 17.6449 6.49366 17.9768C8.64448 20.1276 11.4693 21.2025 14.2933 21.2025C17.1172 21.2025 19.9421 20.1276 22.0921 17.9768C22.424 17.6448 22.424 17.1057 22.0921 16.7738C21.7601 16.4418 21.221 16.4418 20.8891 16.7738C17.2523 20.4105 11.3343 20.4105 7.69751 16.7738L7.69728 16.7736C7.36457 16.4419 6.8266 16.4419 6.49389 16.7736Z" fill="white" stroke="white" stroke-width="0.399757"/>
    <path d="M11.1168 11.4134L11.2582 11.5547C11.5901 11.2228 11.5901 10.6836 11.2582 10.3517L11.2581 10.3516C10.7495 9.8439 10.073 9.5632 9.35425 9.5632C8.63552 9.5632 7.95892 9.84389 7.45112 10.3517C7.11917 10.6836 7.11917 11.2228 7.45112 11.5547C7.78376 11.8874 8.32225 11.8877 8.65438 11.5545L8.51282 11.4134M11.1168 11.4134L11.2586 11.5543C11.0924 11.7215 10.8738 11.8045 10.6563 11.8045C10.4384 11.8045 10.2209 11.7213 10.0543 11.5547C9.86726 11.3676 9.61947 11.265 9.35425 11.265C9.08997 11.265 8.84199 11.3676 8.6539 11.555L8.51282 11.4134M11.1168 11.4134C10.9899 11.5411 10.8231 11.6046 10.6563 11.6046C10.4894 11.6046 10.3234 11.5411 10.1957 11.4134C9.97108 11.1888 9.67243 11.0651 9.35425 11.0651C9.03688 11.0651 8.73823 11.1888 8.51282 11.4134M11.1168 11.4134C11.3707 11.1595 11.3707 10.7469 11.1168 10.493C10.6457 10.0227 10.0199 9.76308 9.35425 9.76308C8.68859 9.76308 8.06281 10.0227 7.59246 10.493C7.33857 10.7469 7.33857 11.1595 7.59246 11.4134C7.84716 11.6681 8.25893 11.6681 8.51282 11.4134" fill="white" stroke="white" stroke-width="0.399757"/>
</svg>
